:SAMPLES-PER-SECOND 30
:FULLY-SPECIFIED
:DEGREES
784
root  -60.4252 33.741 11.6731 -3.4516 -77.6876 7.79491
RightUpLeg  -52.8007 -31.9032 5.63124
RightLeg  65.0176 3.78707 8.19573
RightFoot  -14.1314 -0.362344 -10.9239
RightToes  -1.33073e-015 0 -3.6325e-017
Spine  94.3743 -34.3544 21.8955
Spine1  -73.4431 -66.8831 -78.8319
HEad  -22.3311 72.3407 -160.528
LeftShoulder1  15.4452 -37.0075 -31.4697
LeftArm  88.2493 2.33041 -14.9281
LeftForeArm  -31.7861 -37.3274 -10.1518
LeftHand  -0.407873 1.24511 11.3323
RightShoulder  -39.2586 61.8119 -69.6517
RightArm  -113.155 15.6451 140.92
RightForeArm  0.227461 27.5663 5.93678
RightHand  0.521804 7.68395 4.2407
LeftUpLeg  -48.8726 4.73204 2.26681
LeftLeg  61.4826 -2.75408 -4.92112
LeftFoot  -14.4974 0.100685 0.493201
LeftToes  -1.93726e-010 2.42366e-011 2.16268e-013
785
root  -60.3241 33.8845 11.5906 -6.6441 -77.7552 10.0313
RightUpLeg  -51.4245 -32.0092 4.67376
RightLeg  64.3922 4.01125 8.46111
RightFoot  -13.715 -0.310645 -10.5015
RightToes  -1.33073e-015 0 -3.6325e-017
Spine  94.9832 -33.8811 21.2132
Spine1  -77.41 -67.7691 -76.1203
HEad  -26.954 71.7065 -163.675
LeftShoulder1  15.3727 -35.1801 -33.1474
LeftArm  92.1843 2.65857 -12.9001
LeftForeArm  -31.8549 -36.878 -10.0098
LeftHand  -0.311783 1.92731 10.3159
RightShoulder  -41.4105 62.1842 -72.2389
RightArm  -110.845 17.0853 142.738
RightForeArm  1.00824 26.8738 5.73163
RightHand  0.426545 6.91471 3.66454
LeftUpLeg  -47.4981 4.64329 1.98198
LeftLeg  60.6358 -2.76565 -4.75879
LeftFoot  -13.6676 0.0871077 0.255256
LeftToes  -1.93726e-010 2.42366e-011 2.16268e-013
786
root  -60.2277 33.9293 11.6252 -5.91467 -77.5517 9.87416
RightUpLeg  -52.162 -32.3751 5.14361
RightLeg  63.9162 4.24661 8.79291
RightFoot  -13.6164 -0.293047 -10.2844
RightToes  -1.33073e-015 0 -3.6325e-017
Spine  93.216 -33.8544 22.4909
Spine1  -75.2601 -68.1842 -79.1577
HEad  -26.7511 72.2342 -162.461
LeftShoulder1  15.5101 -35.1602 -33.5261
LeftArm  96.2353 1.99805 -13.7088
LeftForeArm  -32.9145 -35.7937 -9.71094
LeftHand  -0.341487 1.91204 11.2531
RightShoulder  -37.2217 63.5134 -65.3671
RightArm  -113.541 14.9647 140.547
RightForeArm  6.14405 27.5395 5.61361
RightHand  0.44395 6.75898 3.87668
LeftUpLeg  -48.1673 3.98467 1.96049
LeftLeg  60.2569 -2.63614 -4.43718
LeftFoot  -13.0478 0.0779339 -0.0329352
LeftToes  -1.93726e-010 2.42366e-011 2.16268e-013
787
root  -60.0855 34.1256 11.6626 -7.79803 -77.6405 11.4792
RightUpLeg  -51.4697 -32.4056 4.70143
RightLeg  62.7595 4.29738 8.44263
RightFoot  -12.0674 -0.159114 -12.0321
RightToes  -1.33073e-015 0 -3.6325e-017
Spine  92.763 -33.8308 22.8676
Spine1  -74.157 -68.0111 -80.4209
HEad  -25.4421 71.4097 -160.946
LeftShoulder1  15.5747 -35.5565 -33.2698
LeftArm  96.9132 3.12098 -15.2022
LeftForeArm  -30.8304 -34.31 -9.17893
LeftHand  -0.321604 2.16976 11.3858
RightShoulder  -35.4546 64.0208 -62.5153
RightArm  -114.569 14.4475 139.456
RightForeArm  9.33378 28.2531 5.60699
RightHand  0.316267 6.20864 2.82092
LeftUpLeg  -47.3363 3.75867 1.59507
LeftLeg  58.973 -2.64823 -4.22066
LeftFoot  -12.1897 0.0700426 -0.417888
LeftToes  -1.93726e-010 2.42366e-011 2.16268e-013
788
root  -59.9013 34.3861 11.7577 -9.5744 -77.8715 13.1618
RightUpLeg  -50.708 -32.2065 4.19938
RightLeg  61.0853 4.61979 8.469
RightFoot  -11.0374 -0.0430596 -12.0869
RightToes  -1.33073e-015 0 -3.6325e-017
Spine  91.7133 -34.1373 24.0052
Spine1  -68.019 -67.0719 -86.1788
HEad  -18.3972 72.2707 -154.312
LeftShoulder1  15.7584 -37.6579 -31.6067
LeftArm  95.1289 4.56833 -18.0897
LeftForeArm  -28.6874 -32.823 -8.67342
LeftHand  -0.172673 3.6712 10.9144
RightShoulder  -29.5909 64.2681 -54.0987
RightArm  -117.65 12.3543 136.391
RightForeArm  12.9407 29.4747 5.69663
RightHand  0.242514 5.68442 2.23757
LeftUpLeg  -46.5456 3.57328 1.11902
LeftLeg  57.3421 -2.60771 -3.87736
LeftFoot  -11.0553 0.0681112 -0.711627
LeftToes  -1.93726e-010 2.42366e-011 2.16268e-013
789
root  -59.7262 34.765 11.8377 -11.8137 -78.0065 15.9732
RightUpLeg  -50.2287 -31.7468 3.76088
RightLeg  58.626 5.05373 8.39699
RightFoot  -9.88526 0.0812622 -11.5038
RightToes  -1.33073e-015 0 -3.6325e-017
Spine  90.4587 -34.0592 24.8295
Spine1  -64.1297 -65.6862 -89.5004
HEad  -11.8158 71.8926 -148.601
LeftShoulder1  15.7124 -39.6746 -29.5378
LeftArm  92.3033 7.03943 -20.4666
LeftForeArm  -27.6459 -30.6562 -8.02464
LeftHand  -0.171701 3.69526 10.9911
RightShoulder  -22.6515 63.4688 -44.6455
RightArm  -120.718 10.0636 133.828
RightForeArm  13.9427 30.7093 5.94443
RightHand  -0.0299414 6.19306 -0.631744
LeftUpLeg  -45.9698 3.49825 0.329239
LeftLeg  54.7987 -2.61777 -3.51311
LeftFoot  -9.46268 0.0722825 -0.945113
LeftToes  -1.93726e-010 2.42366e-011 2.16268e-013
790
root  -59.5067 35.2376 11.9673 -16.7478 -78.4885 20.5425
RightUpLeg  -48.2867 -31.3083 2.45896
RightLeg  55.5409 5.78572 8.55302
RightFoot  -8.26604 0.253807 -11.4913
RightToes  -1.33073e-015 0 -3.6325e-017
Spine  88.6714 -33.5909 26.6072
Spine1  -56.2519 -63.0854 -97.9304
HEad  -3.60855 72.0076 -140.62
LeftShoulder1  16.3132 -41.628 -29.1391
LeftArm  94.1411 8.74333 -19.6986
LeftForeArm  -29.608 -30.4813 -7.8644
LeftHand  -0.159967 3.81564 11.0363
RightShoulder  -24.5548 65.7781 -44.5873
RightArm  -118.35 13.5567 132.536
RightForeArm  1.90033 30.6976 6.58495
RightHand  -0.129051 6.47392 -1.60032
LeftUpLeg  -43.9736 4.08766 -0.743965
LeftLeg  51.704 -2.94086 -3.54528
LeftFoot  -7.87899 0.0865413 -1.28869
LeftToes  -1.93726e-010 2.42366e-011 2.16268e-013
791
root  -59.2525 35.6599 12.1372 -19.2847 -78.4892 23.4455
RightUpLeg  -47.2963 -31.1421 1.74627
RightLeg  52.3397 6.56027 8.66781
RightFoot  -6.8912 0.376709 -10.8616
RightToes  -1.33073e-015 0 -3.6325e-017
Spine  83.5767 -35.9096 33.4091
Spine1  -33.9126 -46.4121 -114.171
HEad  41.2725 70.8995 -106.562
LeftShoulder1  12.0671 -53.7272 -13.7865
LeftArm  72.7807 4.63822 -35.8054
LeftForeArm  -23.8692 -24.0187 -8.07943
LeftHand  -0.292369 2.34508 10.8186
RightShoulder  -19.0087 82.3588 -35.5457
RightArm  -116.448 17.833 117.788
RightForeArm  -34.4229 27.337 7.44743
RightHand  0.0027674 3.67485 -0.454357
LeftUpLeg  -43.1028 4.55694 -1.6127
LeftLeg  48.9669 -4.12951 -4.6378
LeftFoot  -5.88707 0.111591 -1.56984
LeftToes  -1.93726e-010 2.42366e-011 2.16268e-013
792
root  -58.9705 36.0705 12.3166 -24.4025 -78.6899 28.8814
RightUpLeg  -46.2133 -30.1815 0.487576
RightLeg  49.1123 7.0017 8.21056
RightFoot  -5.33054 0.496487 -10.0878
RightToes  -1.33073e-015 0 -3.6325e-017
Spine  81.5195 -36.8567 33.5058
Spine1  -25.1898 -21.3523 -86.638
HEad  73.9259 48.3464 -112.044
LeftShoulder1  -2.68132 -54.6478 12.8993
LeftArm  12.5111 -23.1807 -52.8742
LeftForeArm  2.85717 -13.6613 -9.9187
LeftHand  -0.400255 1.32599 11.3587
RightShoulder  31.9813 85.185 10.5746
RightArm  -119.292 2.34518 90.4315
RightForeArm  -37.7132 26.1618 7.13612
RightHand  -0.313468 3.65111 -2.38721
LeftUpLeg  -41.9389 5.33048 -2.52273
LeftLeg  46.4028 -6.54801 -6.9162
LeftFoot  -4.62387 0.215006 -3.58847
LeftToes  -1.93726e-010 2.42366e-011 2.16268e-013
793
root  -58.6604 36.4494 12.6527 -28.6923 -79.1206 32.7735
RightUpLeg  -44.6227 -30.7726 -0.271924
RightLeg  45.9992 8.51605 9.01621
RightFoot  -3.53912 0.624132 -9.4909
RightToes  -1.33073e-015 0 -3.6325e-017
Spine  84.4982 -24.5856 20.8928
Spine1  -22.1649 -5.36579 -12.0893
HEad  77.2106 18.4449 -166.976
LeftShoulder1  5.70916 -24.8478 -11.4139
LeftArm  -9.98541 -56.7979 -54.9051
LeftForeArm  6.96762 -14.5217 -3.09414
LeftHand  -0.340444 1.63465 10.4016
RightShoulder  -16.9061 17.78 -67.7647
RightArm  -83.6755 3.80365 73.062
RightForeArm  12.8304 27.4452 4.82187
RightHand  -1.71814 12.9446 -11.6718
LeftUpLeg  -39.8895 5.37875 -2.34529
LeftLeg  44.9236 -8.95978 -9.08728
LeftFoot  -6.75723 0.474487 -10.5749
LeftToes  -1.93726e-010 2.42366e-011 2.16268e-013
794
root  -58.3254 36.7741 12.9604 -39.8834 -80.1742 44.2133
RightUpLeg  -43.8198 -28.6806 -1.7633
RightLeg  42.908 9.1758 8.72406
RightFoot  -1.5631 0.696899 -8.24393
RightToes  -1.33073e-015 0 -3.6325e-017
Spine  79.7536 -15.1522 15.9414
Spine1  -10.8964 -3.32592 2.37245
HEad  81.1203 11.6198 -173.476
LeftShoulder1  4.6094 -15.2444 -17.5488
LeftArm  -8.26456 -59.5113 -55.8813
LeftForeArm  8.92139 -14.5915 -3.19862
LeftHand  -0.43345 1.12837 11.7968
RightShoulder  -6.02861 13.4365 -49.6647
RightArm  -62.1646 22.569 61.6349
RightForeArm  1.23502 20.0571 0.449321
RightHand  -1.73644 12.5231 -11.6041
LeftUpLeg  -38.2882 5.99161 -2.52623
LeftLeg  44.4879 -8.84265 -8.7961
LeftFoot  -7.81036 0.393209 -11.1481
LeftToes  -1.93726e-010 2.42366e-011 2.16268e-013
